<svg id="Dynamic" xmlns="http://www.w3.org/2000/svg" width="141.421" height="141.421" viewBox="0 0 141.421 141.421">
  <g id="outterframe" transform="translate(70.711 0) rotate(45)" fill="none" stroke="#a877ff" stroke-width="5">
    <rect width="100" height="100" stroke="none"/>
    <rect x="2.5" y="2.5" width="95" height="95" fill="none"/>
  </g>
  <g id="innerframe" transform="translate(70.711 14.142) rotate(45)" fill="none" stroke="#a877ff" stroke-width="2">
    <rect width="80" height="80" stroke="none"/>
    <rect x="1" y="1" width="78" height="78" fill="none"/>
  </g>
  <g id="Icon_ionic-ios-rocket" data-name="Icon ionic-ios-rocket" transform="translate(48.543 49.339)">
    <path id="Path_5" data-name="Path 5" d="M41.226,3.853a.39.39,0,0,0-.3-.29c-4.976-1.134-16.473,2.907-22.7,8.712a25.629,25.629,0,0,0-3.027,3.333,12.026,12.026,0,0,0-5.479.639C5.1,18.14,3.753,23.085,3.378,25.207a.789.789,0,0,0,.9.887l7.418-.759a14.339,14.339,0,0,0,.1,1.56,1.507,1.507,0,0,0,.485.946l2.872,2.677a1.712,1.712,0,0,0,1.015.452c.393.043.96.085,1.665.094l-.814,6.9a.8.8,0,0,0,.951.835c2.277-.341,7.592-1.594,9.613-5.9a9.888,9.888,0,0,0,.7-5.089,26.6,26.6,0,0,0,3.585-2.822C38.116,19.2,42.424,8.721,41.226,3.853ZM26.3,17.484a3.466,3.466,0,0,1,0-5.149,4.107,4.107,0,0,1,5.524,0,3.466,3.466,0,0,1,0,5.149A4.107,4.107,0,0,1,26.3,17.484Z" transform="translate(0)" fill="#02b9c7"/>
    <path id="Path_6" data-name="Path 6" d="M12.27,26.754h0a2.667,2.667,0,0,1-1.392.563,1.893,1.893,0,0,1-2.18-2.18,2.615,2.615,0,0,1,.555-1.385l.007-.007a.235.235,0,0,0-.2-.4,3.232,3.232,0,0,0-1.891.921c-1.266,1.266-1.385,5.962-1.385,5.962s4.7-.12,5.97-1.385a3.211,3.211,0,0,0,.921-1.891A.241.241,0,0,0,12.27,26.754Z" transform="translate(0 6.209)" fill="#02b9c7"/>
  </g>
</svg>
