<svg id="Fast-icon" xmlns="http://www.w3.org/2000/svg" width="140" height="140" viewBox="0 0 140 140">
  <g id="outterframe" transform="translate(70 0) rotate(45)" fill="none">
    <path d="M0,0H98.995V98.995H0Z" stroke="none"/>
    <path d="M 5 5 L 5 93.99494934082031 L 93.99494934082031 93.99494934082031 L 93.99494934082031 5 L 5 5 M 0 0 L 98.99494934082031 0 L 98.99494934082031 98.99494934082031 L 0 98.99494934082031 L 0 0 Z" stroke="none" fill="#a877ff"/>
  </g>
  <g id="innerframe" transform="translate(70 14.142) rotate(45)" fill="none">
    <path d="M0,0H78.995V78.995H0Z" stroke="none"/>
    <path d="M 2.000007629394531 2.000007629394531 L 2.000007629394531 76.99494171142578 L 76.99494171142578 76.99494171142578 L 76.99494171142578 2.000007629394531 L 2.000007629394531 2.000007629394531 M 7.62939453125e-06 7.62939453125e-06 L 78.99494171142578 7.62939453125e-06 L 78.99494171142578 78.99494171142578 L 7.62939453125e-06 78.99494171142578 L 7.62939453125e-06 7.62939453125e-06 Z" stroke="none" fill="#a877ff"/>
  </g>
  <g id="Icon_ionic-md-speedometer" data-name="Icon ionic-md-speedometer" transform="translate(51.007 51.209)">
    <path id="Path_2" data-name="Path 2" d="M9,29.25H34.785v3.375H9Z" transform="translate(-3.375 4.42)" fill="#02b9c7"/>
    <path id="Path_3" data-name="Path 3" d="M18,20.25a2.25,2.25,0,1,0-.619-4.416l-4.69-3.424-.281.246,3.438,4.69a2.195,2.195,0,0,0-.1.654A2.248,2.248,0,0,0,18,20.25Z" transform="translate(0.91 1.914)" fill="#02b9c7"/>
    <path id="Path_4" data-name="Path 4" d="M21.893,3.375c-10.229,0-18.518,8.706-18.518,19.45A19.991,19.991,0,0,0,7.3,34.795h5.235l.356-.374,1.967-2.067-2.039-2.141L10.853,32.27A15.313,15.313,0,0,1,7.72,24.321H10.5V21.329H7.72a15.313,15.313,0,0,1,3.134-7.948l1.967,2.057L14.859,13.3,12.9,11.23a13.837,13.837,0,0,1,7.567-3.292v2.918h2.849V7.938a13.837,13.837,0,0,1,7.567,3.292L28.926,13.3l2.039,2.141,1.967-2.057a15.313,15.313,0,0,1,3.134,7.948H33.288v2.992h2.778a15.313,15.313,0,0,1-3.134,7.948l-1.967-2.057-2.039,2.141,1.967,2.067.356.374h5.235A19.991,19.991,0,0,0,40.41,22.825C40.41,12.081,32.122,3.375,21.893,3.375Z" transform="translate(-3.375 -3.375)" fill="#02b9c7"/>
  </g>
</svg>
