<svg id="Responsive" xmlns="http://www.w3.org/2000/svg" width="140" height="140" viewBox="0 0 140 140">
  <g id="outterframe" transform="translate(70 0) rotate(45)" fill="none">
    <path d="M0,0H98.995V98.995H0Z" stroke="none"/>
    <path d="M 5 5 L 5 93.99494934082031 L 93.99494934082031 93.99494934082031 L 93.99494934082031 5 L 5 5 M 0 0 L 98.99494934082031 0 L 98.99494934082031 98.99494934082031 L 0 98.99494934082031 L 0 0 Z" stroke="none" fill="#a877ff"/>
  </g>
  <g id="innerframe" transform="translate(70 14.142) rotate(45)" fill="none">
    <path d="M0,0H78.995V78.995H0Z" stroke="none"/>
    <path d="M 2.000007629394531 2.000007629394531 L 2.000007629394531 76.99494171142578 L 76.99494171142578 76.99494171142578 L 76.99494171142578 2.000007629394531 L 2.000007629394531 2.000007629394531 M 7.62939453125e-06 7.62939453125e-06 L 78.99494171142578 7.62939453125e-06 L 78.99494171142578 78.99494171142578 L 7.62939453125e-06 78.99494171142578 L 7.62939453125e-06 7.62939453125e-06 Z" stroke="none" fill="#a877ff"/>
  </g>
  <path id="Icon_awesome-laptop" data-name="Icon awesome-laptop" d="M43.875,29.25H26.827a2.217,2.217,0,0,1-2.3,2.25H20.25a2.388,2.388,0,0,1-2.3-2.25H1.125A1.128,1.128,0,0,0,0,30.375V31.5A4.513,4.513,0,0,0,4.5,36h36A4.513,4.513,0,0,0,45,31.5V30.375A1.128,1.128,0,0,0,43.875,29.25ZM40.5,3.375A3.385,3.385,0,0,0,37.125,0H7.875A3.385,3.385,0,0,0,4.5,3.375V27h36ZM36,22.5H9V4.5H36Z" transform="translate(36.416 50.027)" fill="#02b9c7"/>
  <path id="Icon_awesome-mobile-alt" data-name="Icon awesome-mobile-alt" d="M19.125,0H3.375A3.376,3.376,0,0,0,0,3.375v29.25A3.376,3.376,0,0,0,3.375,36h15.75A3.376,3.376,0,0,0,22.5,32.625V3.375A3.376,3.376,0,0,0,19.125,0ZM11.25,33.75A2.25,2.25,0,1,1,13.5,31.5,2.248,2.248,0,0,1,11.25,33.75Zm7.875-7.594a.846.846,0,0,1-.844.844H4.219a.846.846,0,0,1-.844-.844V4.219a.846.846,0,0,1,.844-.844H18.281a.846.846,0,0,1,.844.844Z" transform="translate(77.77 50.027)" fill="#02b9c7"/>
</svg>
