<svg id="github-logo" xmlns="http://www.w3.org/2000/svg" width="45" height="45" viewBox="0 0 45 45">
  <path id="Icon_awesome-github" data-name="Icon awesome-github" d="M6.021,15.056c0,.074-.083.134-.189.134s-.2-.048-.2-.134.083-.134.189-.134S6.021,14.97,6.021,15.056Zm-1.129-.167c-.025.074.047.16.156.182A.168.168,0,0,0,5.273,15c.022-.074-.047-.16-.156-.194A.184.184,0,0,0,4.892,14.889Zm1.6-.063c-.105.026-.178.1-.167.182s.105.123.214.1.178-.1.167-.171S6.6,14.814,6.5,14.825ZM8.884.563A8.815,8.815,0,0,0,0,9.644a9.318,9.318,0,0,0,6.151,8.9c.465.086.628-.208.628-.45s-.011-1.5-.011-2.285c0,0-2.54.558-3.074-1.109,0,0-.414-1.083-1.009-1.362,0,0-.831-.584.058-.573a1.908,1.908,0,0,1,1.4.96,1.892,1.892,0,0,0,2.646.778,2.089,2.089,0,0,1,.581-1.254C5.342,13.02,3.3,12.719,3.3,9.138a2.858,2.858,0,0,1,.856-2.192,3.6,3.6,0,0,1,.094-2.527c.758-.242,2.5,1,2.5,1a8.367,8.367,0,0,1,4.558,0s1.746-1.251,2.5-1a3.6,3.6,0,0,1,.094,2.527,2.927,2.927,0,0,1,.936,2.192c0,3.592-2.137,3.878-4.166,4.113a2.231,2.231,0,0,1,.617,1.727c0,1.254-.011,2.806-.011,3.112,0,.242.167.536.628.45A9.234,9.234,0,0,0,18,9.644,9.007,9.007,0,0,0,8.884.563ZM3.527,13.4c-.047.037-.036.123.025.194s.142.086.189.037.036-.123-.025-.194S3.575,13.351,3.527,13.4Zm-.392-.3c-.025.048.011.108.083.145a.106.106,0,0,0,.156-.026c.025-.048-.011-.108-.083-.145S3.161,13.061,3.135,13.1Zm1.176,1.325c-.058.048-.036.16.047.231s.189.1.236.037.025-.16-.047-.231S4.358,14.364,4.311,14.423ZM3.9,13.876c-.058.037-.058.134,0,.22s.156.123.2.086a.173.173,0,0,0,0-.231C4.05,13.865,3.956,13.828,3.9,13.876Z" transform="translate(13.5 12.938)"/>
  <g id="Inner-frame" transform="translate(22.5 5.657) rotate(45)" fill="none">
    <path d="M0,0H23.82V23.82H0Z" stroke="none"/>
    <path d="M 0.9999942779541016 0.9999942779541016 L 0.9999942779541016 22.81980514526367 L 22.81980514526367 22.81980514526367 L 22.81980514526367 0.9999942779541016 L 0.9999942779541016 0.9999942779541016 M -5.7220458984375e-06 -5.7220458984375e-06 L 23.81980514526367 -5.7220458984375e-06 L 23.81980514526367 23.81980514526367 L -5.7220458984375e-06 23.81980514526367 L -5.7220458984375e-06 -5.7220458984375e-06 Z" stroke="none" fill="#a877ff"/>
  </g>
  <g id="Outter-frame" transform="translate(22.5 0) rotate(45)" fill="none">
    <path d="M0,0H31.82V31.82H0Z" stroke="none"/>
    <path d="M 2.000001907348633 2.000001907348633 L 2.000001907348633 29.81980323791504 L 29.81980323791504 29.81980323791504 L 29.81980323791504 2.000001907348633 L 2.000001907348633 2.000001907348633 M 1.9073486328125e-06 1.9073486328125e-06 L 31.81980323791504 1.9073486328125e-06 L 31.81980323791504 31.81980323791504 L 1.9073486328125e-06 31.81980323791504 L 1.9073486328125e-06 1.9073486328125e-06 Z" stroke="none" fill="#a877ff"/>
  </g>
</svg>
