<svg id="linkedin-logo" xmlns="http://www.w3.org/2000/svg" width="45" height="45" viewBox="0 0 45 45">
  <path id="Icon_awesome-linkedin" data-name="Icon awesome-linkedin" d="M11.86,2.25H.909A.9.9,0,0,0,0,3.13V13.578a.9.9,0,0,0,.909.88H11.86a.9.9,0,0,0,.912-.88V3.13A.9.9,0,0,0,11.86,2.25Zm-8,10.464H1.967V6.888h1.9v5.826ZM2.914,6.092a1.075,1.075,0,0,1-1.1-1.049,1.075,1.075,0,0,1,1.1-1.049,1.076,1.076,0,0,1,1.1,1.049A1.073,1.073,0,0,1,2.914,6.092Zm8.043,6.622H9.063V9.88c0-.676-.014-1.545-.984-1.545-.986,0-1.138.736-1.138,1.5v2.883H5.049V6.888H6.865v.8h.026a2.012,2.012,0,0,1,1.793-.94c1.916,0,2.272,1.207,2.272,2.777Z" transform="translate(15.874 13.916)"/>
  <g id="Inner-frame" transform="translate(22.5 5.657) rotate(45)" fill="none">
    <path d="M0,0H23.82V23.82H0Z" stroke="none"/>
    <path d="M 22.81980323791504 0.9999942779541016 L 1.000003814697266 1.000003814697266 L 0.9999942779541016 22.81980323791504 L 22.81980323791504 22.81980323791504 L 22.81980323791504 0.9999942779541016 M 23.81980323791504 -5.7220458984375e-06 L 23.81980323791504 23.81980323791504 L -5.7220458984375e-06 23.81980323791504 L 3.814697265625e-06 3.814697265625e-06 L 23.81980323791504 -5.7220458984375e-06 Z" stroke="none" fill="#a877ff"/>
  </g>
  <g id="Outter-frame" transform="translate(22.5 0) rotate(45)" fill="none">
    <path d="M0,0H31.82V31.82H0Z" stroke="none"/>
    <path d="M 29.81980323791504 1.999992370605469 L 2.000001907348633 2.000001907348633 L 1.999992370605469 29.81980323791504 L 29.81980323791504 29.81980323791504 L 29.81980323791504 1.999992370605469 M 31.81980323791504 -7.62939453125e-06 L 31.81980323791504 31.81980323791504 L -7.62939453125e-06 31.81980323791504 L 1.9073486328125e-06 1.9073486328125e-06 L 31.81980323791504 -7.62939453125e-06 Z" stroke="none" fill="#a877ff"/>
  </g>
</svg>
