<svg xmlns="http://www.w3.org/2000/svg" width="16" height="25" viewBox="0 0 16 25">
  <g id="pointer-selected" transform="translate(0 0)">
    <g id="Subtraction_1" data-name="Subtraction 1" transform="translate(3.536 0)" fill="none">
      <path d="M0,25V20.833L8.309,12.5,0,4.167V0L12.464,12.5,0,25Z" stroke="none"/>
      <path d="M 0.9999999403953552 22.58081245422363 L 11.05191326141357 12.49958038330078 L 0.9999999403953552 2.41907000541687 L 0.9999999403953552 3.753151893615723 L 9.016940116882324 11.79348087310791 L 9.720919609069824 12.49952030181885 L 9.016969680786133 13.20560073852539 L 0.9999999403953552 21.24681854248047 L 0.9999999403953552 22.58081245422363 M -5.79833994152068e-08 25.00002098083496 L -5.79833994152068e-08 24.99761962890625 L -5.79833994152068e-08 20.8334903717041 L 8.308799743652344 12.49956035614014 L -5.79833994152068e-08 4.166520595550537 L -5.79833994152068e-08 4.904175057163229e-07 L 12.4640998840332 12.49956035614014 L 0.001709942007437348 24.99830055236816 L -5.79833994152068e-08 25.00002098083496 Z" stroke="none" fill="#a877ff"/>
    </g>
    <g id="pointer_selected" transform="translate(3.536 8.964) rotate(45)" fill="none" stroke="#a877ff" stroke-width="2">
      <rect width="5" height="5" stroke="none"/>
      <rect x="1" y="1" width="3" height="3" fill="none"/>
    </g>
  </g>
</svg>
