<svg xmlns="http://www.w3.org/2000/svg" xmlns:xlink="http://www.w3.org/1999/xlink" width="207.035" height="52.383" viewBox="0 0 207.035 52.383">
  <defs>
    <linearGradient id="linear-gradient" x1="0.5" y1="1" x2="0.5" gradientUnits="objectBoundingBox">
      <stop offset="0" stop-color="#8f44ff"/>
      <stop offset="1" stop-color="#02b9c7"/>
    </linearGradient>
  </defs>
  <path id="About" d="M191.914,76.447a7.023,7.023,0,0,1-3.146-2.32,9.15,9.15,0,0,1-1.389-3.849,47.778,47.778,0,0,1-.317-6.961V47.039h-4.535V39.164h4.535V31.746l9.914-5.765V39.164h6.75v7.875h-6.75V62.086a37.291,37.291,0,0,0,.194,5.326,2.169,2.169,0,0,0,.878,1.248,2.787,2.787,0,0,0,1.67.492,12.788,12.788,0,0,0,3.973-.95l.843,7.664a19.632,19.632,0,0,1-7.8,1.476A12.376,12.376,0,0,1,191.914,76.447Zm-43.84-.755a9.755,9.755,0,0,1-4.325-4.641,20.714,20.714,0,0,1-1.336-8.261V39.164h9.878V56.32q0,7.875.545,9.651a5.262,5.262,0,0,0,1.986,2.813,6.106,6.106,0,0,0,3.656,1.037,7.77,7.77,0,0,0,4.535-1.389,7.061,7.061,0,0,0,2.742-3.445q.738-2.056.739-10.072V39.164h9.878V76.5H167.2V70.91a14.389,14.389,0,0,1-5.361,4.711,15.031,15.031,0,0,1-7.014,1.723A13.71,13.71,0,0,1,148.074,75.692Zm-42.206-.669a15.916,15.916,0,0,1-7.084-6.8A22.668,22.668,0,0,1,96.359,57.3a20.193,20.193,0,0,1,2.425-9.527,16.652,16.652,0,0,1,6.873-7.032,20.406,20.406,0,0,1,9.932-2.425,18.644,18.644,0,0,1,13.887,5.5,19.012,19.012,0,0,1,5.413,13.905,19.234,19.234,0,0,1-5.467,14.044,18.475,18.475,0,0,1-13.764,5.572A21.68,21.68,0,0,1,105.869,75.023Zm3.253-25.7q-2.637,2.952-2.637,8.508t2.637,8.508a8.619,8.619,0,0,0,12.99,0q2.619-2.954,2.619-8.578,0-5.485-2.619-8.437a8.617,8.617,0,0,0-12.99,0ZM68.779,75.744a15.1,15.1,0,0,1-5.361-4.729V76.5H54.242V24.961h9.879V43.523a13.977,13.977,0,0,1,10.828-5.2,14.558,14.558,0,0,1,11.285,4.939Q90.7,48.2,90.7,57.445q0,9.562-4.553,14.73A14.206,14.206,0,0,1,75.09,77.343,13.668,13.668,0,0,1,68.779,75.744ZM66.407,48.639q-2.356,2.759-2.355,8.384,0,5.8,1.828,8.579a7.816,7.816,0,0,0,6.82,3.938,6.988,6.988,0,0,0,5.572-2.8q2.3-2.794,2.3-8.807,0-6.4-2.32-9.229a7.343,7.343,0,0,0-5.942-2.83A7.444,7.444,0,0,0,66.407,48.639ZM37.895,76.5l-4.5-11.707h-20.6L8.539,76.5H-2.5L17.574,24.961h11L49.215,76.5Zm-21.9-20.39H30.055l-7.1-19.125Z" transform="translate(2.5 -24.961)" fill="url(#linear-gradient)"/>
</svg>
