<svg xmlns="http://www.w3.org/2000/svg" xmlns:xlink="http://www.w3.org/1999/xlink" width="263.707" height="53.297" viewBox="0 0 263.707 53.297">
  <defs>
    <linearGradient id="linear-gradient" x1="0.5" y1="1" x2="0.5" gradientUnits="objectBoundingBox">
      <stop offset="0" stop-color="#8f44ff"/>
      <stop offset="1" stop-color="#02b9c7"/>
    </linearGradient>
  </defs>
  <path id="contact" d="M7.52,70.366Q.91,63.351.91,51.188.91,38.321,7.555,31.2t17.473-7.119q9.457,0,15.363,5.59a20.32,20.32,0,0,1,5.274,9.492l-10.3,2.461A10.648,10.648,0,0,0,24.5,32.977a11.726,11.726,0,0,0-9.3,4.113Q11.633,41.2,11.633,50.414q0,9.773,3.516,13.921a11.415,11.415,0,0,0,9.14,4.149,10.426,10.426,0,0,0,7.137-2.637q2.988-2.637,4.289-8.3l10.09,3.2q-2.321,8.438-7.717,12.533t-13.694,4.1A22.17,22.17,0,0,1,7.52,70.366ZM252,76.447a7.023,7.023,0,0,1-3.146-2.32,9.137,9.137,0,0,1-1.389-3.849,47.778,47.778,0,0,1-.317-6.961V47.039h-4.535V39.164h4.535V31.746l9.914-5.765V39.164h6.75v7.875h-6.75V62.086a37.518,37.518,0,0,0,.193,5.326,2.175,2.175,0,0,0,.879,1.248,2.785,2.785,0,0,0,1.67.492,12.788,12.788,0,0,0,3.973-.95l.843,7.664a19.634,19.634,0,0,1-7.8,1.476A12.376,12.376,0,0,1,252,76.447Zm-42.663-4.271q-4.868-5.168-4.869-14.308,0-9.246,4.887-14.4T222.57,38.32q6.82,0,10.846,2.936A16.26,16.26,0,0,1,239.2,50.2l-9.738,1.758a7.067,7.067,0,0,0-2.233-4.394,6.74,6.74,0,0,0-4.517-1.477,7.38,7.38,0,0,0-5.889,2.549q-2.2,2.549-2.2,8.526,0,6.643,2.233,9.386a7.327,7.327,0,0,0,5.994,2.742,6.657,6.657,0,0,0,4.605-1.6q1.793-1.6,2.532-5.5l9.7,1.651q-1.512,6.68-5.8,10.09t-11.5,3.41Q214.2,77.343,209.334,72.175Zm-42.011,2.039A10.4,10.4,0,0,1,164,66.3a10.617,10.617,0,0,1,1.512-5.643,9.875,9.875,0,0,1,4.236-3.8,33.075,33.075,0,0,1,7.857-2.3,53.872,53.872,0,0,0,9.6-2.425v-.985q0-2.847-1.406-4.061t-5.308-1.212a7.072,7.072,0,0,0-4.114,1.037,7.2,7.2,0,0,0-2.39,3.639l-8.965-1.617a13.966,13.966,0,0,1,5.2-8.015q3.692-2.6,10.969-2.6,6.61,0,9.843,1.564a9.825,9.825,0,0,1,4.553,3.973q1.318,2.408,1.319,8.842L196.8,64.23a40.012,40.012,0,0,0,.474,7.26,21.157,21.157,0,0,0,1.776,5.009h-9.774q-.386-.984-.95-2.918-.246-.879-.351-1.16a17.794,17.794,0,0,1-5.414,3.691,15.5,15.5,0,0,1-6.152,1.23Q170.644,77.343,167.323,74.215Zm13.869-14.133a18.115,18.115,0,0,0-5.379,1.723,4.12,4.12,0,0,0-1.933,3.48,4.843,4.843,0,0,0,1.547,3.586,5.4,5.4,0,0,0,3.938,1.512,8.556,8.556,0,0,0,5.1-1.758,6.193,6.193,0,0,0,2.355-3.27,19.532,19.532,0,0,0,.386-4.816V58.57A61.605,61.605,0,0,1,181.192,60.082ZM147.934,76.447a7.023,7.023,0,0,1-3.146-2.32,9.137,9.137,0,0,1-1.389-3.849,47.778,47.778,0,0,1-.317-6.961V47.039h-4.535V39.164h4.535V31.746L153,25.98V39.164h6.75v7.875H153V62.086a37.514,37.514,0,0,0,.193,5.326,2.175,2.175,0,0,0,.879,1.248,2.785,2.785,0,0,0,1.67.492,12.788,12.788,0,0,0,3.973-.95l.843,7.664a19.635,19.635,0,0,1-7.8,1.476A12.376,12.376,0,0,1,147.934,76.447ZM61.889,75.023a15.917,15.917,0,0,1-7.084-6.8A22.668,22.668,0,0,1,52.379,57.3,20.193,20.193,0,0,1,54.8,47.777a16.652,16.652,0,0,1,6.873-7.032,20.4,20.4,0,0,1,9.932-2.425,18.644,18.644,0,0,1,13.887,5.5A19.012,19.012,0,0,1,90.91,57.727a19.234,19.234,0,0,1-5.467,14.044A18.475,18.475,0,0,1,71.68,77.343,21.68,21.68,0,0,1,61.889,75.023Zm3.252-25.7Q62.5,52.277,62.5,57.832T65.14,66.34a8.62,8.62,0,0,0,12.991,0q2.619-2.954,2.619-8.578,0-5.485-2.619-8.437a8.618,8.618,0,0,0-12.991,0ZM122.727,76.5V57.445q0-6.047-.633-7.822a5.492,5.492,0,0,0-2.056-2.76,5.881,5.881,0,0,0-3.428-.984A7.918,7.918,0,0,0,112,47.285a7.085,7.085,0,0,0-2.8,3.727q-.756,2.319-.756,8.578V76.5H98.574V39.164h9.175v5.484q4.887-6.327,12.3-6.328a14.814,14.814,0,0,1,5.977,1.178,10,10,0,0,1,4.1,3.006,10.886,10.886,0,0,1,1.934,4.148,30.844,30.844,0,0,1,.544,6.645V76.5Z" transform="translate(-0.91 -24.082)" fill="url(#linear-gradient)"/>
</svg>
