<svg xmlns="http://www.w3.org/2000/svg" xmlns:xlink="http://www.w3.org/1999/xlink" width="288.14" height="53.262" viewBox="0 0 288.14 53.262">
  <defs>
    <linearGradient id="linear-gradient" x1="0.5" y1="1" x2="0.5" gradientUnits="objectBoundingBox">
      <stop offset="0" stop-color="#8f44ff"/>
      <stop offset="1" stop-color="#02b9c7"/>
    </linearGradient>
  </defs>
  <path id="Portfolio" d="M256.857,80.023a15.918,15.918,0,0,1-7.084-6.8A22.663,22.663,0,0,1,247.348,62.3a20.2,20.2,0,0,1,2.426-9.527,16.65,16.65,0,0,1,6.873-7.031,20.393,20.393,0,0,1,9.932-2.425,18.64,18.64,0,0,1,13.887,5.5,19.009,19.009,0,0,1,5.413,13.9,19.239,19.239,0,0,1-5.467,14.045,18.478,18.478,0,0,1-13.764,5.572A21.68,21.68,0,0,1,256.857,80.023Zm3.252-25.7q-2.637,2.954-2.636,8.508t2.636,8.508a8.618,8.618,0,0,0,12.991,0q2.619-2.952,2.619-8.578,0-5.484-2.619-8.437a8.62,8.62,0,0,0-12.991,0Zm-87.24,25.7a15.914,15.914,0,0,1-7.084-6.8A22.663,22.663,0,0,1,163.359,62.3a20.2,20.2,0,0,1,2.426-9.527,16.653,16.653,0,0,1,6.872-7.031,20.4,20.4,0,0,1,9.932-2.425,18.637,18.637,0,0,1,13.886,5.5,19.006,19.006,0,0,1,5.414,13.9,19.239,19.239,0,0,1-5.467,14.045,18.48,18.48,0,0,1-13.764,5.572A21.677,21.677,0,0,1,172.869,80.023Zm3.252-25.7q-2.637,2.954-2.637,8.508t2.637,8.508a8.618,8.618,0,0,0,12.991,0q2.619-2.952,2.619-8.578,0-5.484-2.619-8.437a8.62,8.62,0,0,0-12.991,0ZM123,81.447a7.023,7.023,0,0,1-3.146-2.32,9.146,9.146,0,0,1-1.389-3.85,47.778,47.778,0,0,1-.317-6.961V52.039h-4.535V44.164h4.535V36.746l9.914-5.765V44.164h6.75v7.875h-6.75V67.086a37.3,37.3,0,0,0,.193,5.326,2.169,2.169,0,0,0,.878,1.248,2.791,2.791,0,0,0,1.67.491,12.781,12.781,0,0,0,3.973-.949l.843,7.663a19.634,19.634,0,0,1-7.8,1.477A12.376,12.376,0,0,1,123,81.447ZM52.916,80.023a15.916,15.916,0,0,1-7.085-6.8A22.673,22.673,0,0,1,43.406,62.3a20.209,20.209,0,0,1,2.425-9.527A16.655,16.655,0,0,1,52.7,45.746a20.4,20.4,0,0,1,9.931-2.425,18.639,18.639,0,0,1,13.887,5.5,19.009,19.009,0,0,1,5.414,13.9A19.237,19.237,0,0,1,76.47,76.772a18.478,18.478,0,0,1-13.764,5.572A21.673,21.673,0,0,1,52.916,80.023Zm3.252-25.7q-2.637,2.954-2.637,8.508t2.637,8.508a8.617,8.617,0,0,0,12.99,0q2.62-2.952,2.62-8.578,0-5.484-2.62-8.437a8.619,8.619,0,0,0-12.99,0ZM229.629,81.5V44.164h9.879V81.5Zm-20,0V29.961H219.5V81.5Zm-66.8,0V51.934h-5.485v-7.77h5.485V41.351a18.685,18.685,0,0,1,1-7.031,7.922,7.922,0,0,1,3.692-3.78,14.167,14.167,0,0,1,6.8-1.459,27.487,27.487,0,0,1,8.262,1.266l-1.336,6.89a19.5,19.5,0,0,0-4.535-.562,4.044,4.044,0,0,0-3.076,1q-.932,1-.932,3.849v2.637h7.384v7.77h-7.384V81.5Zm-53.578,0V44.164h9.175v5.309a15.952,15.952,0,0,1,4.236-4.957,7.788,7.788,0,0,1,4.271-1.2,12.542,12.542,0,0,1,6.5,1.863L110.379,53.8a8.666,8.666,0,0,0-4.64-1.617,5.484,5.484,0,0,0-3.515,1.143,7.807,7.807,0,0,0-2.268,4.131q-.826,2.988-.826,12.515V81.5Zm-91.512,0V29.961h16.7q9.492,0,12.375.773a13.517,13.517,0,0,1,7.418,5.045,16,16,0,0,1,2.988,10.037A16.815,16.815,0,0,1,35.5,53.8a14.131,14.131,0,0,1-4.377,5.081,15.091,15.091,0,0,1-5.4,2.444,59.4,59.4,0,0,1-10.793.738H8.144V81.5ZM8.144,53.3h5.7q6.152,0,8.226-.808a6.831,6.831,0,0,0,3.253-2.532A6.929,6.929,0,0,0,26.5,45.957a6.657,6.657,0,0,0-1.652-4.64,7.2,7.2,0,0,0-4.183-2.285,50.061,50.061,0,0,0-7.489-.352H8.144ZM229.629,39.1v-9.14h9.879V39.1Z" transform="translate(2.262 -29.082)" fill="url(#linear-gradient)"/>
</svg>
