<svg xmlns="http://www.w3.org/2000/svg" width="275.414" height="66.692" viewBox="0 0 275.414 66.692">
  <path id="Projects" d="M117.893,91.389a34.707,34.707,0,0,1-3.674-.791l1.723-8.437q.7.14,1.318.229a8.123,8.123,0,0,0,1.142.088,4.352,4.352,0,0,0,2.479-.651,3.136,3.136,0,0,0,1.283-1.564,25.656,25.656,0,0,0,.316-5.485V39.164h9.879V75.34q0,7.136-.932,10.072A8.16,8.16,0,0,1,127.841,90a12.612,12.612,0,0,1-6.767,1.652A20.926,20.926,0,0,1,117.893,91.389ZM249.1,74.25a14.258,14.258,0,0,1-5.818-8.4l9.914-1.512a7.267,7.267,0,0,0,2.566,4.378,8.679,8.679,0,0,0,5.414,1.494,9.769,9.769,0,0,0,5.765-1.407,3.137,3.137,0,0,0,1.3-2.636,2.594,2.594,0,0,0-.7-1.864,7.876,7.876,0,0,0-3.3-1.3q-11.953-2.637-15.152-4.817a9.617,9.617,0,0,1-4.429-8.4,10.356,10.356,0,0,1,3.831-8.156q3.833-3.3,11.884-3.3,7.664,0,11.39,2.5a12.76,12.76,0,0,1,5.133,7.383l-9.317,1.723a5.754,5.754,0,0,0-2.267-3.34,8.287,8.287,0,0,0-4.764-1.16q-3.9,0-5.59,1.09a2.341,2.341,0,0,0-1.125,2,2.181,2.181,0,0,0,.985,1.793q1.335.986,9.229,2.777t11.021,4.395a9.135,9.135,0,0,1,3.093,7.348,11.278,11.278,0,0,1-4.289,8.825q-4.29,3.691-12.692,3.691Q253.543,77.343,249.1,74.25Zm-21.006,2.2a7.028,7.028,0,0,1-3.146-2.32,9.162,9.162,0,0,1-1.389-3.849,47.958,47.958,0,0,1-.316-6.961V47.039H218.7V39.164h4.536V31.746l9.913-5.765V39.164h6.75v7.875h-6.75V62.086a37.446,37.446,0,0,0,.193,5.326,2.171,2.171,0,0,0,.879,1.248,2.783,2.783,0,0,0,1.669.492,12.783,12.783,0,0,0,3.973-.95l.844,7.664a19.634,19.634,0,0,1-7.8,1.476A12.384,12.384,0,0,1,228.09,76.447Zm-42.662-4.271q-4.869-5.168-4.869-14.308,0-9.246,4.886-14.4t13.219-5.151q6.82,0,10.846,2.936a16.264,16.264,0,0,1,5.783,8.947l-9.738,1.758a7.061,7.061,0,0,0-2.232-4.394A6.742,6.742,0,0,0,198.8,46.09a7.383,7.383,0,0,0-5.889,2.549q-2.2,2.549-2.2,8.526,0,6.643,2.232,9.386a7.329,7.329,0,0,0,5.994,2.742,6.66,6.66,0,0,0,4.606-1.6q1.793-1.6,2.531-5.5l9.7,1.651q-1.512,6.68-5.8,10.09t-11.5,3.41Q190.3,77.343,185.428,72.175ZM143.5,70.98q-3.692-5.1-3.692-12.867,0-9.281,4.852-14.537a15.979,15.979,0,0,1,12.27-5.256q8.332,0,13.148,5.5t4.605,16.858h-24.75a10,10,0,0,0,2.39,6.838,7.482,7.482,0,0,0,5.7,2.443,6.048,6.048,0,0,0,3.9-1.265,7.82,7.82,0,0,0,2.39-4.078l9.843,1.652a16.144,16.144,0,0,1-5.994,8.244,17.611,17.611,0,0,1-10.248,2.83Q148.18,77.343,143.5,70.98Zm8.683-22.746a9.112,9.112,0,0,0-2.074,6.4h14.765q-.105-4.289-2.215-6.521a7.13,7.13,0,0,0-10.477.123ZM85.936,75.023a15.912,15.912,0,0,1-7.084-6.8A22.668,22.668,0,0,1,76.426,57.3a20.194,20.194,0,0,1,2.425-9.527,16.647,16.647,0,0,1,6.873-7.032,20.4,20.4,0,0,1,9.932-2.425,18.64,18.64,0,0,1,13.886,5.5,19.009,19.009,0,0,1,5.414,13.905,19.237,19.237,0,0,1-5.467,14.044,18.476,18.476,0,0,1-13.764,5.572A21.677,21.677,0,0,1,85.936,75.023Zm3.252-25.7q-2.637,2.952-2.636,8.508t2.636,8.508a8.62,8.62,0,0,0,12.991,0q2.619-2.954,2.619-8.578,0-5.485-2.619-8.437a8.618,8.618,0,0,0-12.991,0ZM50.27,76.5V39.164h9.175v5.308a15.974,15.974,0,0,1,4.236-4.957,7.8,7.8,0,0,1,4.271-1.2,12.542,12.542,0,0,1,6.5,1.863L71.4,48.8a8.669,8.669,0,0,0-4.641-1.617,5.485,5.485,0,0,0-3.515,1.142,7.813,7.813,0,0,0-2.267,4.131q-.826,2.989-.826,12.515V76.5Zm-47.531,0V24.961h16.7q9.492,0,12.375.774a13.512,13.512,0,0,1,7.418,5.045,16,16,0,0,1,2.989,10.038A16.817,16.817,0,0,1,40.5,48.8a14.121,14.121,0,0,1-4.378,5.08,15.084,15.084,0,0,1-5.4,2.444,59.394,59.394,0,0,1-10.793.738H13.145V76.5ZM13.145,48.3h5.7q6.152,0,8.227-.809a6.832,6.832,0,0,0,3.252-2.531A6.93,6.93,0,0,0,31.5,40.957a6.656,6.656,0,0,0-1.652-4.64,7.2,7.2,0,0,0-4.184-2.286,50.089,50.089,0,0,0-7.488-.351H13.145ZM122.48,34.1V24.961h9.879V34.1Z" transform="translate(-2.739 -24.961)" fill="#02b9c7"/>
</svg>
